<?xml version="1.0" encoding="utf-8"?>
<!-- Generator: Adobe Illustrator 24.2.0, SVG Export Plug-In . SVG Version: 6.00 Build 0)  -->
<svg version="1.1" id="Layer_1" xmlns="http://www.w3.org/2000/svg" xmlns:xlink="http://www.w3.org/1999/xlink" x="0px" y="0px"
	 viewBox="0 0 27 34.3" style="enable-background:new 0 0 27 34.3;" xml:space="preserve">
<path d="M13.6,0h-0.1L0,1.4v24.8l13.5,8l13.5-8V1.4C27,1.4,13.6,0,13.6,0z M25.3,25.2l-11.8,7l-11.8-7V15.1l11.7,7v1.2l-8-4.8v1.2
	l8.1,4.9v1.3l-8.1-4.8v1.2l8.1,4.8l8.2-4.9v-5.2l3.6-2.2V25.2z M25.2,13.6L22,15.5l-1.5,0.9l-7.1-4.2v1.2l6,3.6h-0.1l-0.1,0.1
	l-0.9,0.5l-5-2.9v1.2l4,2.3l-1,0.6l-2.9-1.8v1.2l2,1.2l-2,1.2L1.8,13.7l11.6-7C13.4,6.7,25.2,13.6,25.2,13.6z M25.3,12.3l-11.9-7
	l-11.7,7V3l11.8-1.2L25.3,3C25.3,3,25.3,12.3,25.3,12.3z"/>
</svg>
