<?xml version="1.0" encoding="utf-8"?>
<!-- Generator: Adobe Illustrator 24.2.0, SVG Export Plug-In . SVG Version: 6.00 Build 0)  -->
<svg version="1.0" id="Layer_1" xmlns="http://www.w3.org/2000/svg" xmlns:xlink="http://www.w3.org/1999/xlink" x="0px" y="0px"
	 viewBox="0 0 101 18" style="enable-background:new 0 0 101 18;" xml:space="preserve">
<style type="text/css">
	.st0{fill:#111111;}
</style>
<g transform="matrix(1, 0, 0, 1, 90, 10.200001)">
	<path class="st0" d="M-88.8,6.2c-0.8-1-1.2-2.5-1.2-4.4v-6.2c0-1.9,0.4-3.4,1.2-4.4c0.8-1,2.2-1.5,4.2-1.5c1.9,0,3.2,0.4,4,1.3
		s1.2,2.1,1.2,3.8v1.5h-4v-1.8c0-0.7-0.1-1.2-0.2-1.6c-0.1-0.3-0.5-0.5-1-0.5c-0.5,0-1,0.2-1.1,0.6C-85.9-6.5-86-6-86-5.4v8.2
		c0,0.7,0.1,1.2,0.3,1.6S-85.2,5-84.6,5c0.5,0,0.9-0.2,1-0.6c0.2-0.4,0.2-0.9,0.2-1.6V1.1h3.9v1.5c0,1.6-0.4,2.9-1.2,3.9
		c-0.8,0.9-2.1,1.4-4,1.4C-86.6,7.7-88,7.2-88.8,6.2z"/>
	<path class="st0" d="M-74.7-10h4.5l3.3,17.4h-3.6l-0.6-3.7h-2.6l-0.6,3.7H-78L-74.7-10z M-71.5,1.5l-0.9-6.8l-0.9,6.8H-71.5z"/>
	<path class="st0" d="M-64-7.1h-2.7V-10h9.4v2.9h-2.7V7.4h-4V-7.1H-64z"/>
	<path class="st0" d="M-50.3-10h6.9v1.8h-4.4v5.7h3.6v1.7h-3.6v6.3h4.5v1.8h-7V-10z"/>
	<path class="st0" d="M-41.2-10h1.7l5.1,11.6V-10h2.1V7.4h-1.6L-39-4.5V7.4h-2.1V-10H-41.2z"/>
	<path class="st0" d="M-29.8-10h6.9v1.8h-4.4v5.7h3.6v1.7h-3.6v6.3h4.5v1.8h-7C-29.8,7.3-29.8-10-29.8-10z"/>
	<path class="st0" d="M-20.8-10h3.6c1.8,0,3.1,0.4,4,1.1s1.3,1.9,1.3,3.6c0,2.3-0.7,3.6-2.2,4.1l2.5,8.7h-2.4l-2.3-8.2h-1.9v8.2
		h-2.5L-20.8-10L-20.8-10z M-17.4-2.5c1.1,0,1.8-0.2,2.3-0.6c0.5-0.4,0.7-1.2,0.7-2.3c0-0.7-0.1-1.3-0.2-1.7
		c-0.1-0.4-0.4-0.7-0.9-0.9c-0.4-0.2-1-0.3-1.7-0.3h-1.1v5.7C-18.3-2.5-17.4-2.5-17.4-2.5z"/>
	<path class="st0" d="M-8.7,6.1c-0.7-1-1.1-2.5-1.1-4.5v-5.7c0-1.4,0.1-2.5,0.4-3.4c0.3-0.9,0.8-1.5,1.5-2s1.7-0.7,2.9-0.7
		c1.6,0,2.8,0.4,3.6,1.2c0.7,0.8,1.1,2.1,1.1,3.9v0.7h-2.3V-5c0-0.8-0.1-1.5-0.2-1.9c-0.1-0.5-0.3-0.8-0.7-1
		c-0.3-0.3-0.8-0.4-1.4-0.4c-0.7,0-1.2,0.2-1.5,0.5C-6.7-7.4-7-7-7.1-6.5C-7.2-6-7.2-5.4-7.2-4.5V2c0,1.3,0.2,2.3,0.5,2.9
		s1,0.9,1.9,0.9s1.6-0.3,1.9-1c0.3-0.6,0.5-1.7,0.5-3.1V0.5h-2.3v-1.7h4.5v8.6h-1.6l-0.2-2c-0.6,1.5-1.6,2.2-3.2,2.2
		C-6.8,7.6-8,7.1-8.7,6.1z"/>
	<path class="st0" d="M4.9,1.3L0.9-10h2.3L6-1.6L8.7-10H11L7.2,1.3v6.1H4.8V1.3C4.8,1.3,4.9,1.3,4.9,1.3z"/>
</g>
</svg>
