<?xml version="1.0" encoding="utf-8"?>
<!-- Generator: Adobe Illustrator 24.2.0, SVG Export Plug-In . SVG Version: 6.00 Build 0)  -->
<svg version="1.1" id="Layer_1" xmlns="http://www.w3.org/2000/svg" xmlns:xlink="http://www.w3.org/1999/xlink" x="0px" y="0px"
	 viewBox="0 0 34 38" style="enable-background:new 0 0 34 38;" xml:space="preserve">
<style type="text/css">
	.st0{clip-path:url(#SVGID_2_);}
	.st1{fill:#FDC305;}
	.st2{fill:#F06351;}
</style>
<g>
	<defs>
		<rect id="SVGID_1_" width="34" height="38"/>
	</defs>
	<clipPath id="SVGID_2_">
		<use xlink:href="#SVGID_1_"  style="overflow:visible;"/>
	</clipPath>
	<g class="st0">
		<path class="st1" d="M6.2,20.9v-2.3c6.8-0.9,13.7-1.4,20.6-1.3c0,0.6,0,1.2-0.1,1.8c2-0.9,4-1.5,6.1-1.8c-1.3-3.4-3.8-6.4-7-8.3
			C22.7,7.1,19,6.3,15.2,6.6C11.5,7,8.1,8.6,5.3,11.1c-2.7,2.5-4.5,5.9-5.1,9.5L6.2,20.9z"/>
		<path class="st1" d="M27.8,24.5c-1.2,1.3-1.4,1.2-1.4,3.5c0,0.9,0,5,0,9.3c2.3-1.5,4.3-3.6,5.6-6.1c1.3-2.4,2-5.2,2-8
			c0-1.1-0.1-2.1-0.3-3.1C31.6,21.3,29.6,22.8,27.8,24.5z"/>
		<path class="st1" d="M6.5,26c0,0-3.9-1.5-5.3-1.8C0.8,24,0.4,23.9,0,23.9c0.1,2.9,1,5.8,2.5,8.2c1.6,2.5,3.7,4.5,6.3,5.9L6.5,26z"
			/>
		<path class="st2" d="M26.8,17.3c0-5.6-0.4-11.1-1.4-16.6c0,0-0.1-1.3-0.9-0.2c-0.6,1.3-1,2.6-1.2,4c-4.3-0.3-8.7-0.2-13,0.3
			C9.4,2,8,0.8,7.3,1C6.6,1.3,6.6,4.4,6.6,4.4L6.3,18.6C13.1,17.7,19.9,17.3,26.8,17.3z"/>
		<path d="M12.7,14.1c0-0.1,1,0.7,1.4,0.9c0.4,0.2,0.6,0.4,0.6,0.6c0,0.2-0.3,0.3-0.6,0.3s-0.9-0.1-1-0.3h1h0.3
			C13.7,15.3,13.1,14.7,12.7,14.1z"/>
		<path d="M20.3,14.3l-1.1,1.3c0,0.1-0.2,0.4,0.2,0.3c0.4-0.1,0.8-0.2,1.2-0.3c0.1,0,0.1-0.2-0.1-0.2s-0.7,0.1-1,0.1L20.3,14.3
			C20.3,14.3,20.4,14.1,20.3,14.3z"/>
		<path d="M17.1,20.4c0.5-0.2,0.9-0.6,1.1-1c0.3-0.7,0-0.9-0.4-1c-0.6-0.1-1.2,0-1.8,0.3c-0.4,0.4-0.3,0.7-0.1,1
			C16.3,20,16.7,20.2,17.1,20.4z"/>
		<path class="st2" d="M16.7,21.7c-0.1,0.2-0.3,0.4-0.5,0.6c-0.3,0.2-0.6,0.4-1,0.4c-0.5,0-1.1-0.1-1.5-0.4
			c-0.2-0.1-0.4-0.3-0.5-0.4c-0.1-0.1-0.2-0.2-0.4-0.3c0,0,0.8,4.1,2.6,4.8c1.9,0.7,2.2-0.8,2.2-1.1c0.1-1.1-0.2-2.3-0.8-3.3
			C16.8,21.6,16.8,21.8,16.7,21.7z"/>
		<path d="M15,22.8c-0.5-0.1-0.9-0.2-1.3-0.5c-0.4-0.2-0.8-0.6-1-1c0,0,0,0,0,0c0,0,0,0,0-0.1s0,0,0-0.1c0,0,0,0,0,0c0,0,0,0,0,0
			c0,0,0,0,0.1,0c0,0,0,0,0.1,0c0,0,0,0,0,0c0.5,0.7,1.3,1.2,2.2,1.3c0.3,0,0.7-0.1,1-0.3c0.3-0.2,0.5-0.4,0.7-0.7l0.1-0.2l0.1,0.2
			c0,0,0.4,0.8,1,0.8c0.6,0,1.1-0.4,1.6-1.3c0,0,0,0,0,0c0,0,0,0,0.1,0s0,0,0.1,0c0,0,0,0,0,0c0,0,0.1,0.1,0.1,0.1c0,0,0,0.1,0,0.1
			c-0.7,1-1.3,1.5-1.9,1.4c-0.2,0-0.5-0.1-0.7-0.3c-0.2-0.1-0.4-0.3-0.5-0.5c-0.2,0.3-0.5,0.5-0.8,0.7C15.7,22.7,15.4,22.8,15,22.8z
			"/>
		<path class="st2" d="M26.8,19.1c-1.8,1.6-3.6,3.4-5.2,5.2c-1.6,1.8-3.4,3.5-5.4,4.9c-0.2-0.5-1.7-1.5-1.7-1.5s-3.2-2.2-5.3-3.9
			c-1.1-0.9-2.2-2-3.2-3l-2-0.1c2.9,4.2,7.3,7.4,12.2,8.9c0.9-0.1,3.3-1.9,5.2-3.3c2.2-1.8,4.2-3.8,6.1-6c0.5-0.6,0.9-1.3,1.2-2
			C27.6,18.8,26.8,19.1,26.8,19.1z"/>
	</g>
</g>
</svg>
