<svg version="1.0" id="Layer_1" xmlns="http://www.w3.org/2000/svg" x="0" y="0" viewBox="0 0 101 18" xml:space="preserve"><style>.st0{fill:#111}</style><path class="st0" d="M-88.8 6.2c-.8-1-1.2-2.5-1.2-4.4v-6.2c0-1.9.4-3.4 1.2-4.4.8-1 2.2-1.5 4.2-1.5 1.9 0 3.2.4 4 1.3s1.2 2.1 1.2 3.8v1.5h-4v-1.8c0-.7-.1-1.2-.2-1.6-.1-.3-.5-.5-1-.5s-1 .2-1.1.6c-.2.5-.3 1-.3 1.6v8.2c0 .7.1 1.2.3 1.6s.5.6 1.1.6c.5 0 .9-.2 1-.6.2-.4.2-.9.2-1.6V1.1h3.9v1.5c0 1.6-.4 2.9-1.2 3.9-.8.9-2.1 1.4-4 1.4-1.9-.2-3.3-.7-4.1-1.7zM-74.7-10h4.5l3.3 17.4h-3.6l-.6-3.7h-2.6l-.6 3.7H-78l3.3-17.4zm3.2 11.5l-.9-6.8-.9 6.8h1.8zM-64-7.1h-2.7V-10h9.4v2.9H-60V7.4h-4V-7.1zM-50.3-10h6.9v1.8h-4.4v5.7h3.6v1.7h-3.6v6.3h4.5v1.8h-7V-10zM-41.2-10h1.7l5.1 11.6V-10h2.1V7.4h-1.6L-39-4.5V7.4h-2.1V-10h-.1zM-29.8-10h6.9v1.8h-4.4v5.7h3.6v1.7h-3.6v6.3h4.5v1.8h-7V-10zM-20.8-10h3.6c1.8 0 3.1.4 4 1.1s1.3 1.9 1.3 3.6c0 2.3-.7 3.6-2.2 4.1l2.5 8.7H-14l-2.3-8.2h-1.9v8.2h-2.5l-.1-17.5zm3.4 7.5c1.1 0 1.8-.2 2.3-.6.5-.4.7-1.2.7-2.3 0-.7-.1-1.3-.2-1.7-.1-.4-.4-.7-.9-.9-.4-.2-1-.3-1.7-.3h-1.1v5.7c0 .1.9.1.9.1zM-8.7 6.1c-.7-1-1.1-2.5-1.1-4.5v-5.7c0-1.4.1-2.5.4-3.4.3-.9.8-1.5 1.5-2s1.7-.7 2.9-.7c1.6 0 2.8.4 3.6 1.2.7.8 1.1 2.1 1.1 3.9v.7h-2.3V-5c0-.8-.1-1.5-.2-1.9-.1-.5-.3-.8-.7-1-.3-.3-.8-.4-1.4-.4-.7 0-1.2.2-1.5.5-.3.4-.6.8-.7 1.3-.1.5-.1 1.1-.1 2V2c0 1.3.2 2.3.5 2.9s1 .9 1.9.9 1.6-.3 1.9-1c.3-.6.5-1.7.5-3.1V.5h-2.3v-1.7h4.5v8.6h-1.6l-.2-2c-.6 1.5-1.6 2.2-3.2 2.2S-8 7.1-8.7 6.1zM4.9 1.3L.9-10h2.3L6-1.6 8.7-10H11L7.2 1.3v6.1H4.8V1.3h.1z" transform="translate(90 10.2)"/></svg>